<<<<<<< HEAD
<svg xmlns="http://www.w3.org/2000/svg" viewBox="0 0 200 200">
  <defs>
    <linearGradient id="grad2" x1="0%" y1="0%" x2="100%" y2="100%">
      <stop offset="0%" style="stop-color:#fff9f0;stop-opacity:1" />
      <stop offset="100%" style="stop-color:#ffe8cc;stop-opacity:1" />
    </linearGradient>
  </defs>
  <rect width="200" height="200" fill="#fff5ed"/>
  
  <!-- Bottle outline -->
  <path d="M 70 50 L 65 80 Q 65 140 75 160 L 125 160 Q 135 140 135 80 L 130 50 Z" fill="url(#grad2)" stroke="#4a7c4e" stroke-width="2"/>
  
  <!-- Milk inside bottle - creamy -->
  <path d="M 72 105 Q 72 140 80 155 L 120 155 Q 128 140 128 105 Z" fill="#f0d9a8" opacity="0.9"/>
  
  <!-- Bottle cap -->
  <rect x="68" y="40" width="64" height="12" fill="#2c5f2d" rx="2"/>
  <rect x="65" y="35" width="70" height="6" fill="#1a3b1b" rx="2"/>
  
  <!-- Shine effect -->
  <ellipse cx="85" cy="70" rx="8" ry="15" fill="white" opacity="0.5"/>
  
  <!-- Text -->
  <text x="100" y="185" font-family="Arial" font-size="11" fill="#2c5f2d" text-anchor="middle" font-weight="bold">BUFFALO GOLD</text>
=======
<svg xmlns="http://www.w3.org/2000/svg" viewBox="0 0 200 200">
  <defs>
    <linearGradient id="grad2" x1="0%" y1="0%" x2="100%" y2="100%">
      <stop offset="0%" style="stop-color:#fff9f0;stop-opacity:1" />
      <stop offset="100%" style="stop-color:#ffe8cc;stop-opacity:1" />
    </linearGradient>
  </defs>
  <rect width="200" height="200" fill="#fff5ed"/>
  
  <!-- Bottle outline -->
  <path d="M 70 50 L 65 80 Q 65 140 75 160 L 125 160 Q 135 140 135 80 L 130 50 Z" fill="url(#grad2)" stroke="#4a7c4e" stroke-width="2"/>
  
  <!-- Milk inside bottle - creamy -->
  <path d="M 72 105 Q 72 140 80 155 L 120 155 Q 128 140 128 105 Z" fill="#f0d9a8" opacity="0.9"/>
  
  <!-- Bottle cap -->
  <rect x="68" y="40" width="64" height="12" fill="#2c5f2d" rx="2"/>
  <rect x="65" y="35" width="70" height="6" fill="#1a3b1b" rx="2"/>
  
  <!-- Shine effect -->
  <ellipse cx="85" cy="70" rx="8" ry="15" fill="white" opacity="0.5"/>
  
  <!-- Text -->
  <text x="100" y="185" font-family="Arial" font-size="11" fill="#2c5f2d" text-anchor="middle" font-weight="bold">BUFFALO GOLD</text>
>>>>>>> 674038acaea1553ff7758abf94159b647b581115
</svg>