<<<<<<< HEAD
<svg xmlns="http://www.w3.org/2000/svg" viewBox="0 0 200 200">
  <defs>
    <linearGradient id="grad6" x1="0%" y1="0%" x2="100%" y2="100%">
      <stop offset="0%" style="stop-color:#f5f0e8;stop-opacity:1" />
      <stop offset="100%" style="stop-color:#e6dcc9;stop-opacity:1" />
    </linearGradient>
  </defs>
  <rect width="200" height="200" fill="#faf8f3"/>
  
  <!-- Glass bottle -->
  <path d="M 70 50 L 65 85 Q 65 145 75 160 L 125 160 Q 135 145 135 85 L 130 50 Z" fill="url(#grad6)" stroke="#4a7c4e" stroke-width="2"/>
  
  <!-- Buttermilk inside -->
  <path d="M 72 115 Q 72 142 80 157 L 120 157 Q 128 142 128 115 Z" fill="#d4b5a0" opacity="0.8"/>
  
  <!-- Textured surface (buttermilk ripples) -->
  <ellipse cx="100" cy="115" rx="28" ry="6" fill="none" stroke="#c99870" stroke-width="1" opacity="0.5"/>
  <ellipse cx="100" cy="130" rx="25" ry="5" fill="none" stroke="#c99870" stroke-width="0.8" opacity="0.4"/>
  
  <!-- Bottle cap -->
  <rect x="68" y="40" width="64" height="12" fill="#8b6f47" rx="2"/>
  <rect x="65" y="35" width="70" height="6" fill="#5d4e37" rx="2"/>
  
  <!-- Shine -->
  <ellipse cx="85" cy="70" rx="8" ry="15" fill="white" opacity="0.3"/>
  
  <!-- Text -->
  <text x="100" y="185" font-family="Arial" font-size="12" fill="#2c5f2d" text-anchor="middle" font-weight="bold">BUTTERMILK</text>
=======
<svg xmlns="http://www.w3.org/2000/svg" viewBox="0 0 200 200">
  <defs>
    <linearGradient id="grad6" x1="0%" y1="0%" x2="100%" y2="100%">
      <stop offset="0%" style="stop-color:#f5f0e8;stop-opacity:1" />
      <stop offset="100%" style="stop-color:#e6dcc9;stop-opacity:1" />
    </linearGradient>
  </defs>
  <rect width="200" height="200" fill="#faf8f3"/>
  
  <!-- Glass bottle -->
  <path d="M 70 50 L 65 85 Q 65 145 75 160 L 125 160 Q 135 145 135 85 L 130 50 Z" fill="url(#grad6)" stroke="#4a7c4e" stroke-width="2"/>
  
  <!-- Buttermilk inside -->
  <path d="M 72 115 Q 72 142 80 157 L 120 157 Q 128 142 128 115 Z" fill="#d4b5a0" opacity="0.8"/>
  
  <!-- Textured surface (buttermilk ripples) -->
  <ellipse cx="100" cy="115" rx="28" ry="6" fill="none" stroke="#c99870" stroke-width="1" opacity="0.5"/>
  <ellipse cx="100" cy="130" rx="25" ry="5" fill="none" stroke="#c99870" stroke-width="0.8" opacity="0.4"/>
  
  <!-- Bottle cap -->
  <rect x="68" y="40" width="64" height="12" fill="#8b6f47" rx="2"/>
  <rect x="65" y="35" width="70" height="6" fill="#5d4e37" rx="2"/>
  
  <!-- Shine -->
  <ellipse cx="85" cy="70" rx="8" ry="15" fill="white" opacity="0.3"/>
  
  <!-- Text -->
  <text x="100" y="185" font-family="Arial" font-size="12" fill="#2c5f2d" text-anchor="middle" font-weight="bold">BUTTERMILK</text>
>>>>>>> 674038acaea1553ff7758abf94159b647b581115
</svg>