<<<<<<< HEAD
<svg xmlns="http://www.w3.org/2000/svg" viewBox="0 0 200 200">
  <defs>
    <linearGradient id="grad5" x1="0%" y1="0%" x2="100%" y2="100%">
      <stop offset="0%" style="stop-color:#fef5e7;stop-opacity:1" />
      <stop offset="100%" style="stop-color:#f5dba7;stop-opacity:1" />
    </linearGradient>
  </defs>
  <rect width="200" height="200" fill="#fefaf0"/>
  
  <!-- Container outline (ornate jar) -->
  <path d="M 60 75 L 58 95 Q 58 150 70 165 L 130 165 Q 142 150 142 95 L 140 75 Z" fill="url(#grad5)" stroke="#2c5f2d" stroke-width="2.5"/>
  
  <!-- Ghee inside - richer yellow -->
  <path d="M 64 110 Q 64 150 72 162 L 128 162 Q 136 150 136 110 Z" fill="#cc8c00" opacity="0.9"/>
  
  <!-- Ripple effects -->
  <ellipse cx="100" cy="110" rx="38" ry="10" fill="none" stroke="#f0ad4e" stroke-width="1.5" opacity="0.5"/>
  <ellipse cx="100" cy="125" rx="32" ry="8" fill="none" stroke="#f0ad4e" stroke-width="1" opacity="0.4"/>
  
  <!-- Ornate jar cap -->
  <rect x="62" y="65" width="76" height="12" fill="#2c5f2d" rx="2"/>
  <rect x="60" y="60" width="80" height="6" fill="#1a3b1b" rx="2"/>
  <circle cx="80" cy="65" r="2.5" fill="#f0ad4e"/>
  <circle cx="100" cy="65" r="2.5" fill="#f0ad4e"/>
  <circle cx="120" cy="65" r="2.5" fill="#f0ad4e"/>
  
  <!-- Shine -->
  <ellipse cx="75" cy="100" rx="12" ry="25" fill="white" opacity="0.25"/>
  
  <!-- Text -->
  <text x="100" y="190" font-family="Arial" font-size="12" fill="#2c5f2d" text-anchor="middle" font-weight="bold">BUFFALO GHEE</text>
=======
<svg xmlns="http://www.w3.org/2000/svg" viewBox="0 0 200 200">
  <defs>
    <linearGradient id="grad5" x1="0%" y1="0%" x2="100%" y2="100%">
      <stop offset="0%" style="stop-color:#fef5e7;stop-opacity:1" />
      <stop offset="100%" style="stop-color:#f5dba7;stop-opacity:1" />
    </linearGradient>
  </defs>
  <rect width="200" height="200" fill="#fefaf0"/>
  
  <!-- Container outline (ornate jar) -->
  <path d="M 60 75 L 58 95 Q 58 150 70 165 L 130 165 Q 142 150 142 95 L 140 75 Z" fill="url(#grad5)" stroke="#2c5f2d" stroke-width="2.5"/>
  
  <!-- Ghee inside - richer yellow -->
  <path d="M 64 110 Q 64 150 72 162 L 128 162 Q 136 150 136 110 Z" fill="#cc8c00" opacity="0.9"/>
  
  <!-- Ripple effects -->
  <ellipse cx="100" cy="110" rx="38" ry="10" fill="none" stroke="#f0ad4e" stroke-width="1.5" opacity="0.5"/>
  <ellipse cx="100" cy="125" rx="32" ry="8" fill="none" stroke="#f0ad4e" stroke-width="1" opacity="0.4"/>
  
  <!-- Ornate jar cap -->
  <rect x="62" y="65" width="76" height="12" fill="#2c5f2d" rx="2"/>
  <rect x="60" y="60" width="80" height="6" fill="#1a3b1b" rx="2"/>
  <circle cx="80" cy="65" r="2.5" fill="#f0ad4e"/>
  <circle cx="100" cy="65" r="2.5" fill="#f0ad4e"/>
  <circle cx="120" cy="65" r="2.5" fill="#f0ad4e"/>
  
  <!-- Shine -->
  <ellipse cx="75" cy="100" rx="12" ry="25" fill="white" opacity="0.25"/>
  
  <!-- Text -->
  <text x="100" y="190" font-family="Arial" font-size="12" fill="#2c5f2d" text-anchor="middle" font-weight="bold">BUFFALO GHEE</text>
>>>>>>> 674038acaea1553ff7758abf94159b647b581115
</svg>