<svg xmlns="http://www.w3.org/2000/svg" viewBox="0 0 200 200">
  <defs>
    <linearGradient id="grad8" x1="0%" y1="0%" x2="100%" y2="100%">
      <stop offset="0%" style="stop-color:#fff5f0;stop-opacity:1" />
      <stop offset="100%" style="stop-color:#ffe8dd;stop-opacity:1" />
    </linearGradient>
  </defs>
  <rect width="200" height="200" fill="#fffbf8"/>
  
  <!-- Paneer block 1 -->
  <path d="M 45 75 L 45 135 Q 45 155 60 165 L 95 165 Q 105 155 105 135 L 105 75 Z" fill="url(#grad8)" stroke="#c99870" stroke-width="2"/>
  
  <!-- Paneer block 2 (stacked) -->
  <path d="M 105 85 L 105 140 Q 105 158 120 168 L 155 168 Q 165 158 165 140 L 165 85 Z" fill="url(#grad8)" stroke="#c99870" stroke-width="2"/>
  
  <!-- Texture details on block 1 -->
  <line x1="50" y1="90" x2="100" y2="90" stroke="#d4a574" stroke-width="1" opacity="0.4"/>
  <line x1="50" y1="110" x2="100" y2="110" stroke="#d4a574" stroke-width="1" opacity="0.4"/>
  <line x1="50" y1="130" x2="100" y2="130" stroke="#d4a574" stroke-width="1" opacity="0.4"/>
  
  <!-- Texture details on block 2 -->
  <line x1="110" y1="100" x2="160" y2="100" stroke="#d4a574" stroke-width="1" opacity="0.4"/>
  <line x1="110" y1="120" x2="160" y2="120" stroke="#d4a574" stroke-width="1" opacity="0.4"/>
  <line x1="110" y1="140" x2="160" y2="140" stroke="#d4a574" stroke-width="1" opacity="0.4"/>
  
  <!-- Shine/highlight -->
  <ellipse cx="60" cy="90" rx="12" ry="20" fill="white" opacity="0.35"/>
  <ellipse cx="130" cy="105" rx="15" ry="22" fill="white" opacity="0.3"/>
  
  <!-- Shadow between blocks -->
  <path d="M 105 85 L 105 140" stroke="rgba(0,0,0,0.1)" stroke-width="2"/>
  
  <!-- Text -->
  <text x="100" y="190" font-family="Arial" font-size="12" fill="#2c5f2d" text-anchor="middle" font-weight="bold">PANEER</text>
</svg>